<svg width="35" height="35" viewBox="0 0 29 29" fill="none" xmlns="http://www.w3.org/2000/svg">
    <path d="M8.66699 10.125L13.042 14.5L8.66699 18.875M15.9587 18.875H20.3337" stroke="#E6E8EF" stroke-width="2.1875" stroke-linecap="round" stroke-linejoin="round"/>
    <path d="M1.375 10.7083C1.375 7.44167 1.375 5.80833 2.01083 4.56C2.57009 3.46244 3.46244 2.57009 4.56 2.01083C5.80833 1.375 7.44167 1.375 10.7083 1.375H18.2917C21.5583 1.375 23.1917 1.375 24.44 2.01083C25.5376 2.57009 26.4299 3.46244 26.9892 4.56C27.625 5.80833 27.625 7.44167 27.625 10.7083V18.2917C27.625 21.5583 27.625 23.1917 26.9892 24.44C26.4299 25.5376 25.5376 26.4299 24.44 26.9892C23.1917 27.625 21.5583 27.625 18.2917 27.625H10.7083C7.44167 27.625 5.80833 27.625 4.56 26.9892C3.46244 26.4299 2.57009 25.5376 2.01083 24.44C1.375 23.1917 1.375 21.5583 1.375 18.2917V10.7083Z" stroke="#E6E8EF" stroke-width="2.1875" stroke-linecap="round" stroke-linejoin="round"/>
</svg>
